<?xml version="1.0" encoding="UTF-8" standalone="no" ?>
<!DOCTYPE svg PUBLIC "-//W3C//DTD SVG 1.1//EN" "http://www.w3.org/Graphics/SVG/1.1/DTD/svg11.dtd">
<svg xmlns="http://www.w3.org/2000/svg" xmlns:xlink="http://www.w3.org/1999/xlink" version="1.1" width="141.296" height="141.296" xml:space="preserve">
<desc>Created with Fabric.js 1.6.0-rc.1</desc>
<defs></defs>
<g style="stroke: none; stroke-width: 1; stroke-dasharray: none; stroke-linecap: butt; stroke-linejoin: miter; stroke-miterlimit: 10; fill: none; fill-rule: nonzero; opacity: 1;" transform="translate(10.000000000000007 10.000000000000007) scale(0.24 0.24)" >
  <circle cx="252.2" cy="252.2" r="252.2" style="stroke: none; stroke-width: 1; stroke-dasharray: none; stroke-linecap: butt; stroke-linejoin: miter; stroke-miterlimit: 10; fill: #FD8469; fill-rule: nonzero; opacity: 1;" transform="  matrix(1 0 0 1 0 0) "/>
  <path d="M 377.4 130.2 H 127 c -16.3 0 -29.6 13.2 -29.6 29.6 v 184.8 c 0 16.3 13.2 29.6 29.6 29.6 h 250.5 c 16.3 0 29.6 -13.2 29.6 -29.6 V 159.8 C 407 143.5 393.8 130.2 377.4 130.2 z" style="stroke: none; stroke-width: 1; stroke-dasharray: none; stroke-linecap: butt; stroke-linejoin: miter; stroke-miterlimit: 10; fill: #FFFFFF; fill-rule: nonzero; opacity: 1;" transform=" matrix(1 0 0 1 0 0) " stroke-linecap="round" />
  <path d="M 97.4 183.8 v -23.5 c 0 -16.7 13.5 -30.2 30.2 -30.2 h 249.3 c 16.7 0 30.2 13.5 30.2 30.2 v 23.5 H 97.4 z" style="stroke: none; stroke-width: 1; stroke-dasharray: none; stroke-linecap: butt; stroke-linejoin: miter; stroke-miterlimit: 10; fill: #324A5E; fill-rule: nonzero; opacity: 1;" transform=" matrix(1 0 0 1 0 0) " stroke-linecap="round" />
  <circle cx="369" cy="158.6" r="10.1" style="stroke: none; stroke-width: 1; stroke-dasharray: none; stroke-linecap: butt; stroke-linejoin: miter; stroke-miterlimit: 10; fill: #FFFFFF; fill-rule: nonzero; opacity: 1;" transform="  matrix(1 0 0 1 0 0) "/>
  <circle cx="331" cy="158.6" r="10.1" style="stroke: none; stroke-width: 1; stroke-dasharray: none; stroke-linecap: butt; stroke-linejoin: miter; stroke-miterlimit: 10; fill: #FFFFFF; fill-rule: nonzero; opacity: 1;" transform="  matrix(1 0 0 1 0 0) "/>
  <circle cx="293.1" cy="158.6" r="10.1" style="stroke: none; stroke-width: 1; stroke-dasharray: none; stroke-linecap: butt; stroke-linejoin: miter; stroke-miterlimit: 10; fill: #FFFFFF; fill-rule: nonzero; opacity: 1;" transform="  matrix(1 0 0 1 0 0) "/>
  <path d="M 219.8 280.5 c -0.8 -0.8 -1.2 -1.8 -1.2 -3 s 0.4 -2.2 1.2 -3 s 1.8 -1.2 3 -1.2 s 2.2 0.4 3 1.2 c 0.8 0.8 1.2 1.8 1.2 3 s -0.4 2.2 -1.2 3 s -1.8 1.2 -3 1.2 C 221.6 281.7 220.6 281.3 219.8 280.5 z" style="stroke: none; stroke-width: 1; stroke-dasharray: none; stroke-linecap: butt; stroke-linejoin: miter; stroke-miterlimit: 10; fill: #4CDBC4; fill-rule: nonzero; opacity: 1;" transform=" matrix(1 0 0 1 0 0) " stroke-linecap="round" />
  <path d="M 245.1 275.5 c 2.4 0 4.5 -1.2 6.4 -3.5 l 4.2 4.7 c -3.3 3.4 -6.8 5.1 -10.6 5.1 s -7 -1.2 -9.7 -3.6 c -2.6 -2.4 -3.9 -5.6 -3.9 -9.5 c 0 -3.9 1.3 -7.1 4 -9.5 c 2.7 -2.4 5.8 -3.7 9.5 -3.7 c 1.8 0 3.7 0.4 5.6 1.1 c 1.9 0.8 3.5 1.9 4.9 3.4 l -3.7 4.8 c -0.8 -1 -1.8 -1.7 -3 -2.3 c -1.2 -0.5 -2.4 -0.8 -3.5 -0.8 c -1.9 0 -3.5 0.6 -4.8 1.8 s -2 2.9 -2 5.1 s 0.7 3.8 2 5 C 241.8 274.9 243.3 275.5 245.1 275.5 z" style="stroke: none; stroke-width: 1; stroke-dasharray: none; stroke-linecap: butt; stroke-linejoin: miter; stroke-miterlimit: 10; fill: #4CDBC4; fill-rule: nonzero; opacity: 1;" transform=" matrix(1 0 0 1 0 0) " stroke-linecap="round" />
  <path d="M 285.5 268.6 c 0 3.7 -1.3 6.8 -3.8 9.3 c -2.6 2.5 -5.8 3.8 -9.6 3.8 c -3.9 0 -7.1 -1.3 -9.6 -3.8 c -2.6 -2.5 -3.8 -5.6 -3.8 -9.3 s 1.3 -6.8 3.8 -9.3 c 2.6 -2.5 5.8 -3.8 9.6 -3.8 c 3.9 0 7.1 1.3 9.6 3.8 S 285.5 265 285.5 268.6 z M 265.7 268.6 c 0 2.1 0.6 3.8 1.8 5.1 c 1.2 1.3 2.7 2 4.5 2 s 3.4 -0.7 4.5 -2 c 1.2 -1.3 1.8 -3 1.8 -5.1 c 0 -2.1 -0.6 -3.8 -1.8 -5.1 c -1.2 -1.3 -2.7 -2 -4.5 -2 s -3.4 0.7 -4.5 2 C 266.3 264.9 265.7 266.6 265.7 268.6 z" style="stroke: none; stroke-width: 1; stroke-dasharray: none; stroke-linecap: butt; stroke-linejoin: miter; stroke-miterlimit: 10; fill: #4CDBC4; fill-rule: nonzero; opacity: 1;" transform=" matrix(1 0 0 1 0 0) " stroke-linecap="round" />
  <path d="M 314.1 267.6 v 13.7 H 307 v -13.9 c 0 -2 -0.3 -3.5 -0.9 -4.4 c -0.6 -0.9 -1.6 -1.4 -3 -1.4 c -1.4 0 -2.6 0.5 -3.6 1.5 c -1.1 1 -1.6 2.5 -1.6 4.5 v 13.7 h -7.1 v -25.4 h 7.1 v 2.9 c 2 -2.2 4.2 -3.3 6.7 -3.3 c 1.6 0 3.1 0.5 4.4 1.4 c 1.3 0.9 2.3 2.1 3 3.5 c 1 -1.5 2.3 -2.7 3.9 -3.6 c 1.7 -0.9 3.3 -1.3 5 -1.3 c 3 0 5.4 0.9 7.2 2.7 c 1.8 1.8 2.7 4.4 2.7 7.7 v 15.5 h -7.1 v -13.9 c 0 -3.9 -1.4 -5.9 -4.3 -5.9 c -1.4 0 -2.6 0.5 -3.7 1.5 C 314.6 264.2 314.1 265.7 314.1 267.6 z" style="stroke: none; stroke-width: 1; stroke-dasharray: none; stroke-linecap: butt; stroke-linejoin: miter; stroke-miterlimit: 10; fill: #4CDBC4; fill-rule: nonzero; opacity: 1;" transform=" matrix(1 0 0 1 0 0) " stroke-linecap="round" />
  <path d="M 219.8 333 c -0.8 -0.8 -1.2 -1.8 -1.2 -3 s 0.4 -2.2 1.2 -3 s 1.8 -1.2 3 -1.2 s 2.2 0.4 3 1.2 c 0.8 0.8 1.2 1.8 1.2 3 s -0.4 2.2 -1.2 3 s -1.8 1.2 -3 1.2 C 221.6 334.2 220.6 333.8 219.8 333 z" style="stroke: none; stroke-width: 1; stroke-dasharray: none; stroke-linecap: butt; stroke-linejoin: miter; stroke-miterlimit: 10; fill: #4CDBC4; fill-rule: nonzero; opacity: 1;" transform=" matrix(1 0 0 1 0 0) " stroke-linecap="round" />
  <path d="M 240 319.6 v 14.2 h -7.1 v -25.4 h 7.1 v 2.8 c 2.1 -2.2 4.6 -3.3 7.2 -3.3 c 2.7 0 4.9 0.9 6.7 2.8 c 1.8 1.9 2.7 4.4 2.7 7.6 v 15.5 h -7.1 v -14.4 c 0 -3.9 -1.4 -5.9 -4.3 -5.9 c -1.4 0 -2.7 0.5 -3.7 1.5 C 240.6 316.1 240 317.6 240 319.6 z" style="stroke: none; stroke-width: 1; stroke-dasharray: none; stroke-linecap: butt; stroke-linejoin: miter; stroke-miterlimit: 10; fill: #4CDBC4; fill-rule: nonzero; opacity: 1;" transform=" matrix(1 0 0 1 0 0) " stroke-linecap="round" />
  <path d="M 285.2 330.1 c -2.9 2.7 -6.2 4.1 -10.1 4.1 c -3.9 0 -7.1 -1.2 -9.6 -3.6 c -2.5 -2.4 -3.8 -5.6 -3.8 -9.6 s 1.3 -7.2 3.9 -9.6 c 2.6 -2.4 5.6 -3.5 9.1 -3.5 s 6.5 1.1 8.9 3.2 c 2.4 2.1 3.7 5 3.7 8.7 v 3.8 h -18.5 c 0.2 1.4 0.9 2.5 2.2 3.4 c 1.2 0.9 2.6 1.3 4.2 1.3 c 2.5 0 4.5 -0.8 6.1 -2.5 L 285.2 330.1 z M 278.4 315 c -1 -0.8 -2.2 -1.2 -3.6 -1.2 c -1.4 0 -2.7 0.4 -3.9 1.3 c -1.2 0.9 -1.8 2 -2 3.5 h 11.2 C 279.9 317 279.4 315.8 278.4 315 z" style="stroke: none; stroke-width: 1; stroke-dasharray: none; stroke-linecap: butt; stroke-linejoin: miter; stroke-miterlimit: 10; fill: #4CDBC4; fill-rule: nonzero; opacity: 1;" transform=" matrix(1 0 0 1 0 0) " stroke-linecap="round" />
  <path d="M 300.6 313.4 v 11.4 c 0 1 0.3 1.7 0.8 2.3 c 0.5 0.6 1.1 0.8 1.8 0.8 c 1.3 0 2.4 -0.6 3.4 -1.8 l 2.6 5 c -2.2 2 -4.5 3 -7 3 s -4.5 -0.8 -6.2 -2.4 c -1.7 -1.6 -2.5 -3.8 -2.5 -6.6 v -11.7 h -3 v -5.1 h 3 v -7.6 h 7.1 v 7.6 h 6.1 v 5.1 L 300.6 313.4 L 300.6 313.4 z" style="stroke: none; stroke-width: 1; stroke-dasharray: none; stroke-linecap: butt; stroke-linejoin: miter; stroke-miterlimit: 10; fill: #4CDBC4; fill-rule: nonzero; opacity: 1;" transform=" matrix(1 0 0 1 0 0) " stroke-linecap="round" />
  <rect x="173.6" y="252.2" rx="0" ry="0" width="29.7" height="29.7" style="stroke: none; stroke-width: 1; stroke-dasharray: none; stroke-linecap: butt; stroke-linejoin: miter; stroke-miterlimit: 10; fill: #FF7058; fill-rule: nonzero; opacity: 1;" transform=" matrix(1 0 0 1 0 0) "/>
  <rect x="173.6" y="307.9" rx="0" ry="0" width="29.7" height="29.7" style="stroke: none; stroke-width: 1; stroke-dasharray: none; stroke-linecap: butt; stroke-linejoin: miter; stroke-miterlimit: 10; fill: #54C0EB; fill-rule: nonzero; opacity: 1;" transform=" matrix(1 0 0 1 0 0) "/>
  <path d="M 204.8 228.5 h -7.3 l -8.7 -25.4 h 7.3 l 5 15.4 l 5 -15.4 h 6.9 l 5 15.4 l 5 -15.4 h 7.4 l -8.7 25.4 h -7.5 l -4.7 -13.9 L 204.8 228.5 z" style="stroke: none; stroke-width: 1; stroke-dasharray: none; stroke-linecap: butt; stroke-linejoin: miter; stroke-miterlimit: 10; fill: #54C0EB; fill-rule: nonzero; opacity: 1;" transform=" matrix(1 0 0 1 0 0) " stroke-linecap="round" />
  <path d="M 247.5 228.5 h -7.3 l -8.7 -25.4 h 7.3 l 5 15.4 l 5 -15.4 h 6.9 l 5 15.4 l 5 -15.4 h 7.4 l -8.7 25.4 H 257 l -4.7 -13.9 L 247.5 228.5 z" style="stroke: none; stroke-width: 1; stroke-dasharray: none; stroke-linecap: butt; stroke-linejoin: miter; stroke-miterlimit: 10; fill: #54C0EB; fill-rule: nonzero; opacity: 1;" transform=" matrix(1 0 0 1 0 0) " stroke-linecap="round" />
  <path d="M 290.1 228.5 h -7.3 l -8.7 -25.4 h 7.3 l 5 15.4 l 5 -15.4 h 6.9 l 5 15.4 l 5 -15.4 h 7.4 l -8.7 25.4 h -7.4 l -4.7 -13.9 L 290.1 228.5 z" style="stroke: none; stroke-width: 1; stroke-dasharray: none; stroke-linecap: butt; stroke-linejoin: miter; stroke-miterlimit: 10; fill: #54C0EB; fill-rule: nonzero; opacity: 1;" transform=" matrix(1 0 0 1 0 0) " stroke-linecap="round" />
</g>
</svg>