<?xml version="1.0" encoding="iso-8859-1"?>
<!-- Generator: Adobe Illustrator 19.0.0, SVG Export Plug-In . SVG Version: 6.00 Build 0)  -->
<svg version="1.1" id="Capa_1" xmlns="http://www.w3.org/2000/svg" xmlns:xlink="http://www.w3.org/1999/xlink" x="0px" y="0px"
	 viewBox="0 0 512.001 512.001" style="enable-background:new 0 0 512.001 512.001;" xml:space="preserve">
<g>
	<g>
		<path d="M429.523,168.857c8.808-9.12,12.107-21.876,8.825-34.123s-12.517-21.644-24.704-25.139
			c-11.043-3.166-17.517-14.379-14.737-25.526c3.067-12.302-0.453-24.999-9.418-33.964c-8.966-8.965-21.662-12.485-33.964-9.419
			c-11.151,2.78-22.359-3.693-25.525-14.737c-3.495-12.188-12.893-21.423-25.139-24.704c-12.248-3.283-25.004,0.018-34.124,8.825
			c-8.266,7.98-21.211,7.981-29.474,0c-9.12-8.808-21.877-12.107-34.123-8.825c-12.246,3.282-21.644,12.517-25.138,24.704
			c-3.166,11.043-14.379,17.518-25.526,14.737c-12.299-3.065-24.998,0.454-33.964,9.419c-8.965,8.965-12.486,21.662-9.419,33.964
			c2.78,11.147-3.693,22.359-14.737,25.526c-12.188,3.494-21.423,12.892-24.704,25.138c-3.282,12.247,0.018,25.003,8.825,34.123
			c7.981,8.264,7.981,21.211,0,29.475c-8.808,9.12-12.107,21.876-8.825,34.123c3.281,12.246,12.517,21.644,24.704,25.138
			c11.043,3.166,17.517,14.379,14.737,25.526c-3.067,12.301,0.453,24.999,9.419,33.964c6.317,6.316,14.487,9.915,23.065,10.427
			l-22.603,41.067c-1.94,3.526-0.655,7.956,2.87,9.896c3.526,1.94,7.956,0.655,9.897-2.87l27.345-49.683
			c0.133,0.009,0.264,0.027,0.397,0.038c0.934,0.081,1.857,0.215,2.759,0.416c0.028,0.006,0.056,0.01,0.084,0.016
			c0.442,0.1,0.876,0.222,1.308,0.349c0.124,0.037,0.248,0.071,0.37,0.11c0.428,0.135,0.85,0.283,1.267,0.444
			c0.098,0.038,0.195,0.078,0.292,0.117c1.884,0.762,3.645,1.788,5.231,3.046c0.051,0.04,0.103,0.079,0.153,0.12
			c0.363,0.293,0.714,0.6,1.057,0.917c0.08,0.074,0.158,0.15,0.237,0.225c0.333,0.317,0.66,0.642,0.972,0.981
			c0.041,0.045,0.079,0.093,0.12,0.138c0.577,0.637,1.11,1.316,1.609,2.025c0.104,0.149,0.215,0.291,0.316,0.443
			c0.179,0.268,0.342,0.549,0.509,0.826c0.162,0.27,0.323,0.541,0.473,0.82c0.135,0.249,0.264,0.502,0.389,0.757
			c0.172,0.352,0.334,0.711,0.488,1.075c0.089,0.21,0.182,0.418,0.265,0.632c0.229,0.594,0.441,1.199,0.62,1.822
			c3.494,12.188,12.892,21.423,25.138,24.704c0.006,0.001,0.011,0.002,0.017,0.004c0.704,0.188,1.411,0.349,2.118,0.494
			c0.235,0.048,0.469,0.087,0.704,0.131c0.487,0.09,0.974,0.172,1.461,0.242c0.263,0.037,0.525,0.072,0.787,0.104
			c0.486,0.059,0.971,0.105,1.456,0.144c0.237,0.019,0.474,0.042,0.711,0.056c0.706,0.042,1.412,0.069,2.115,0.069
			c0.005,0,0.011,0,0.016,0c0.599,0,1.196-0.017,1.792-0.047c0.163-0.008,0.325-0.025,0.488-0.035
			c0.431-0.028,0.862-0.058,1.291-0.101c0.214-0.022,0.426-0.052,0.639-0.077c0.377-0.045,0.753-0.091,1.128-0.148
			c0.232-0.035,0.462-0.078,0.692-0.118c0.354-0.061,0.707-0.124,1.058-0.196c0.239-0.049,0.477-0.103,0.715-0.157
			c0.34-0.077,0.679-0.157,1.017-0.244c0.241-0.062,0.482-0.128,0.722-0.195c0.332-0.093,0.662-0.191,0.99-0.294
			c0.24-0.075,0.48-0.152,0.719-0.232c0.326-0.11,0.65-0.226,0.973-0.345c0.235-0.087,0.471-0.173,0.704-0.265
			c0.325-0.128,0.646-0.264,0.968-0.401c0.226-0.097,0.453-0.191,0.677-0.293c0.33-0.15,0.656-0.309,0.982-0.469
			c0.209-0.103,0.42-0.201,0.628-0.308c0.353-0.182,0.701-0.376,1.048-0.57c0.175-0.098,0.353-0.19,0.527-0.291
			c0.505-0.293,1.003-0.598,1.495-0.918c0.013-0.008,0.025-0.015,0.038-0.023l11.868,21.563l-58.73,106.708l-18.043-59.044
			c-1.496-4.896-6.537-7.673-11.471-6.313l-59.536,16.345l13.78-25.036c1.941-3.525,0.656-7.956-2.87-9.896
			c-3.526-1.942-7.957-0.656-9.896,2.87L81.75,443.478c-2.034,3.697-1.747,8.116,0.732,11.26c2.348,2.978,6.118,4.194,9.833,3.175
			l66.131-18.156l20.041,65.584c1.126,3.685,4.169,6.218,7.942,6.609c0.329,0.034,0.658,0.051,0.985,0.051
			c3.628,0,7.053-2.066,8.92-5.457L256,398.133l59.668,108.411c1.866,3.391,5.292,5.456,8.919,5.456
			c0.327,0,0.657-0.017,0.987-0.051c3.773-0.391,6.816-2.924,7.941-6.609l20.041-65.584l66.132,18.156
			c3.715,1.018,7.484-0.197,9.833-3.175c2.479-3.143,2.766-7.563,0.731-11.259l-63.828-115.967
			c8.578-0.511,16.749-4.111,23.065-10.428c8.965-8.965,12.486-21.662,9.418-33.964c-2.78-11.147,3.693-22.359,14.736-25.526
			c12.189-3.494,21.425-12.892,24.705-25.139c3.282-12.246-0.018-25.003-8.826-34.122
			C421.542,190.068,421.542,177.121,429.523,168.857z M412.098,440.718l-59.535-16.345c-4.942-1.356-9.979,1.417-11.473,6.313
			l-18.043,59.044L247.71,352.848c0.004-0.002,0.008-0.004,0.012-0.005c0.448-0.19,0.902-0.362,1.359-0.52
			c0.05-0.017,0.1-0.034,0.149-0.051c4.372-1.472,9.111-1.471,13.466-0.025c0.021,0.007,0.042,0.014,0.062,0.021
			c1.256,0.421,2.474,0.974,3.647,1.635c0.238,0.135,0.477,0.266,0.711,0.411c0.245,0.151,0.486,0.313,0.726,0.475
			c0.311,0.211,0.619,0.431,0.922,0.66c0.184,0.139,0.369,0.276,0.549,0.421c0.486,0.394,0.965,0.804,1.424,1.247
			c1.433,1.384,2.964,2.615,4.56,3.722c8.564,5.943,19.239,7.87,29.564,5.103c0.765-0.205,1.52-0.433,2.262-0.684
			c11.136-3.763,19.6-12.594,22.877-24.02c0.18-0.627,0.393-1.234,0.623-1.83c0.08-0.206,0.169-0.406,0.255-0.608
			c0.157-0.373,0.323-0.74,0.499-1.099c0.123-0.25,0.249-0.499,0.382-0.743c0.153-0.284,0.316-0.559,0.481-0.833
			c0.165-0.275,0.327-0.552,0.503-0.818c0.104-0.156,0.218-0.303,0.326-0.456c0.497-0.705,1.028-1.38,1.602-2.014
			c0.04-0.044,0.078-0.092,0.118-0.136c0.313-0.34,0.64-0.665,0.974-0.983c0.078-0.074,0.155-0.149,0.234-0.222
			c0.344-0.317,0.696-0.625,1.059-0.918c0.05-0.041,0.102-0.079,0.153-0.12c1.585-1.258,3.346-2.283,5.228-3.045
			c0.099-0.04,0.198-0.081,0.298-0.12c0.415-0.161,0.836-0.308,1.262-0.443c0.126-0.039,0.253-0.075,0.379-0.112
			c0.429-0.127,0.86-0.247,1.299-0.347c0.037-0.008,0.075-0.014,0.112-0.022c0.887-0.196,1.794-0.328,2.712-0.409
			c0.14-0.012,0.278-0.031,0.418-0.04L412.098,440.718z M424.273,228.683c-1.946,7.26-7.42,12.83-14.646,14.902
			c-18.63,5.342-29.549,24.256-24.86,43.06c1.819,7.293-0.268,14.819-5.583,20.134s-12.841,7.401-20.133,5.583
			c-16.158-4.029-32.395,3.476-40.033,17.491c0,0.001-0.001,0.002-0.002,0.003c-0.234,0.429-0.46,0.864-0.678,1.305
			c-0.042,0.086-0.083,0.173-0.125,0.259c-0.182,0.377-0.361,0.756-0.53,1.142c-0.075,0.169-0.145,0.342-0.217,0.512
			c-0.135,0.321-0.271,0.641-0.398,0.968c-0.107,0.274-0.205,0.553-0.306,0.831c-0.087,0.241-0.178,0.479-0.26,0.722
			c-0.181,0.536-0.352,1.077-0.509,1.625c-2.071,7.225-7.642,12.699-14.902,14.644c-0.449,0.12-0.898,0.225-1.349,0.316
			c-6.838,1.373-13.806-0.648-18.88-5.547c-0.418-0.403-0.844-0.794-1.276-1.174c-0.264-0.232-0.535-0.452-0.805-0.675
			c-0.162-0.134-0.32-0.272-0.483-0.403c-0.402-0.322-0.81-0.63-1.222-0.932c-0.025-0.018-0.049-0.037-0.073-0.055
			c-6.265-4.569-13.631-6.859-21-6.859c-8.008,0-16.012,2.706-22.602,8.101c-0.006,0.005-0.013,0.009-0.019,0.014
			c-0.043,0.035-0.081,0.07-0.123,0.105c-0.325,0.269-0.65,0.54-0.968,0.822c-0.396,0.349-0.778,0.699-1.148,1.055
			c-4.731,4.569-11.112,6.637-17.496,5.78c-0.912-0.123-1.824-0.305-2.731-0.548c-7.26-1.945-12.83-7.42-14.902-14.645
			c-0.158-0.55-0.329-1.092-0.511-1.629c-0.079-0.235-0.167-0.464-0.251-0.696c-0.104-0.287-0.205-0.575-0.316-0.858
			c-0.125-0.32-0.258-0.635-0.391-0.95c-0.075-0.177-0.148-0.356-0.226-0.532c-0.168-0.382-0.346-0.759-0.526-1.133
			c-0.043-0.088-0.085-0.177-0.128-0.265c-7.319-14.851-24.053-22.949-40.712-18.799c-7.294,1.82-14.819-0.269-20.133-5.583
			c-5.315-5.314-7.402-12.841-5.583-20.133c4.689-18.805-6.231-37.719-24.861-43.06c-7.225-2.072-12.699-7.642-14.644-14.902
			c-1.945-7.26,0.01-14.822,5.232-20.228c13.463-13.94,13.463-35.781,0-49.721c-5.221-5.406-7.177-12.968-5.232-20.228
			c1.945-7.259,7.42-12.83,14.644-14.902c18.63-5.341,29.55-24.256,24.861-43.06c-1.819-7.293,0.268-14.819,5.583-20.133
			c5.314-5.315,12.842-7.401,20.133-5.583c18.806,4.688,37.718-6.231,43.06-24.861c2.072-7.225,7.642-12.699,14.902-14.644
			c7.262-1.945,14.822,0.011,20.228,5.232c13.94,13.463,35.78,13.463,49.721,0c5.407-5.221,12.971-7.177,20.229-5.232
			c7.259,1.945,12.83,7.42,14.901,14.644c5.342,18.631,24.259,29.553,43.06,24.861c7.288-1.82,14.818,0.268,20.133,5.583
			s7.402,12.841,5.583,20.133c-4.689,18.804,6.23,37.718,24.86,43.06c7.226,2.072,12.7,7.642,14.646,14.902
			c1.945,7.26-0.011,14.821-5.232,20.228c-13.464,13.941-13.463,35.781,0.001,49.721
			C424.262,213.862,426.218,221.423,424.273,228.683z"/>
	</g>
</g>
<g>
	<g>
		<path d="M256,41.23c-78.5,0-142.365,63.865-142.365,142.365S177.5,325.96,256,325.96s142.364-63.865,142.364-142.365
			S334.5,41.23,256,41.23z M256,311.387c-70.465,0-127.792-57.327-127.792-127.792S185.535,55.802,256,55.802
			c70.464,0,127.792,57.327,127.792,127.792S326.464,311.387,256,311.387z"/>
	</g>
</g>
<g>
	<g>
		<path d="M352.38,161.923l-25.416-23.809c-2.937-2.751-7.548-2.599-10.298,0.337c-2.751,2.937-2.6,7.548,0.336,10.299
			l25.417,23.809c1.065,0.999,1.225,2.199,1.225,2.825s-0.159,1.827-1.225,2.825c-1.486,1.391-3.809,1.391-5.293,0l-76.378-71.549
			c-2.809-2.629-7.177-2.625-9.978,0.014l-75.887,71.488c-1.489,1.403-3.822,1.402-5.31,0c-1.059-0.997-1.217-2.193-1.217-2.818
			c0-0.624,0.158-1.82,1.217-2.818l83.516-78.675c1.485-1.398,3.815-1.401,5.301-0.007l25.315,23.714
			c2.939,2.752,7.549,2.6,10.3-0.336c2.751-2.937,2.601-7.548-0.336-10.299L268.354,83.21c-7.091-6.644-18.187-6.628-25.258,0.035
			l-83.516,78.674c-3.684,3.471-5.797,8.364-5.797,13.425c0,5.062,2.113,9.955,5.797,13.425c6.681,6.294,16.926,6.654,24.021,1.088
			l0.096,68.658c0.009,6.461,5.267,11.711,11.727,11.711c0.005,0,0.011,0,0.016,0l121.129-0.169
			c6.466-0.009,11.719-5.276,11.711-11.744l-0.096-68.599c3.367,2.723,7.472,4.099,11.586,4.099c4.537,0,9.075-1.657,12.609-4.968
			c3.709-3.473,5.836-8.38,5.836-13.461S356.088,165.397,352.38,161.923z M243.75,255.586l-0.094-67.237l24.472-0.034l0.093,67.237
			L243.75,255.586z M282.794,255.532l-0.1-71.687c-0.003-2.704-1.06-5.245-2.974-7.154c-1.911-1.906-4.449-2.955-7.147-2.955
			c-0.004,0-0.01,0-0.015,0l-33.374,0.046c-2.703,0.004-5.243,1.061-7.152,2.975c-1.91,1.915-2.959,4.458-2.955,7.161l0.1,71.688
			l-30.91,0.043l-0.111-79.39l57.624-54.284l57.814,54.159l0.111,79.353L282.794,255.532z"/>
	</g>
</g>
<g>
</g>
<g>
</g>
<g>
</g>
<g>
</g>
<g>
</g>
<g>
</g>
<g>
</g>
<g>
</g>
<g>
</g>
<g>
</g>
<g>
</g>
<g>
</g>
<g>
</g>
<g>
</g>
<g>
</g>
</svg>
