<?xml version="1.0" encoding="UTF-8" standalone="no" ?>
<!DOCTYPE svg PUBLIC "-//W3C//DTD SVG 1.1//EN" "http://www.w3.org/Graphics/SVG/1.1/DTD/svg11.dtd">
<svg xmlns="http://www.w3.org/2000/svg" xmlns:xlink="http://www.w3.org/1999/xlink" version="1.1" width="636.1200000000001" height="230.7" xml:space="preserve">
<desc>Created with Fabric.js 1.6.0-rc.1</desc>
<defs></defs>
  <g transform="translate(411.46 87.45) scale(1.32 1.53)">
   <text font-family="Open Sans" font-size="40" font-weight="bold" style="stroke: none; stroke-width: 1; stroke-dasharray: none; stroke-linecap: butt; stroke-linejoin: miter; stroke-miterlimit: 10; fill: #28282d; fill-rule: nonzero; opacity: 1;" ><tspan x="-163.13" y="8.98" style="stroke: none; stroke-width: 0; stroke-dasharray: none; stroke-linecap: butt; stroke-linejoin: miter; stroke-miterlimit: 4; fill: #28282d; fill-rule: ; opacity: 1;">C</tspan><tspan x="-137.89" y="8.98" style="stroke: none; stroke-width: 0; stroke-dasharray: none; stroke-linecap: butt; stroke-linejoin: miter; stroke-miterlimit: 4; fill: #28282d; fill-rule: ; opacity: 1;">O</tspan><tspan x="-106.74" y="8.98" style="stroke: none; stroke-width: 0; stroke-dasharray: none; stroke-linecap: butt; stroke-linejoin: miter; stroke-miterlimit: 4; fill: #28282d; fill-rule: ; opacity: 1;">N</tspan><tspan x="-76.58" y="8.98" style="stroke: none; stroke-width: 0; stroke-dasharray: none; stroke-linecap: butt; stroke-linejoin: miter; stroke-miterlimit: 4; fill: #28282d; fill-rule: ; opacity: 1;">S</tspan><tspan x="-54.63" y="8.98" style="stroke: none; stroke-width: 0; stroke-dasharray: none; stroke-linecap: butt; stroke-linejoin: miter; stroke-miterlimit: 4; fill: #28282d; fill-rule: ; opacity: 1;">T</tspan><tspan x="-32.5" y="8.98" style="stroke: none; stroke-width: 0; stroke-dasharray: none; stroke-linecap: butt; stroke-linejoin: miter; stroke-miterlimit: 4; fill: #28282d; fill-rule: ; opacity: 1;">R</tspan><tspan x="-7.77" y="8.98" style="stroke: none; stroke-width: 0; stroke-dasharray: none; stroke-linecap: butt; stroke-linejoin: miter; stroke-miterlimit: 4; fill: #28282d; fill-rule: ; opacity: 1;">U</tspan><tspan x="21.35" y="8.98" style="stroke: none; stroke-width: 0; stroke-dasharray: none; stroke-linecap: butt; stroke-linejoin: miter; stroke-miterlimit: 4; fill: #28282d; fill-rule: ; opacity: 1;">C</tspan><tspan x="46.58" y="8.98" style="stroke: none; stroke-width: 0; stroke-dasharray: none; stroke-linecap: butt; stroke-linejoin: miter; stroke-miterlimit: 4; fill: #28282d; fill-rule: ; opacity: 1;">T</tspan><tspan x="68.71" y="8.98" style="stroke: none; stroke-width: 0; stroke-dasharray: none; stroke-linecap: butt; stroke-linejoin: miter; stroke-miterlimit: 4; fill: #28282d; fill-rule: ; opacity: 1;">I</tspan><tspan x="79.86" y="8.98" style="stroke: none; stroke-width: 0; stroke-dasharray: none; stroke-linecap: butt; stroke-linejoin: miter; stroke-miterlimit: 4; fill: #28282d; fill-rule: ; opacity: 1;">O</tspan><tspan x="111.02" y="8.98" style="stroke: none; stroke-width: 0; stroke-dasharray: none; stroke-linecap: butt; stroke-linejoin: miter; stroke-miterlimit: 4; fill: #28282d; fill-rule: ; opacity: 1;">N</tspan><tspan x="141.17" y="8.98" style="stroke: none; stroke-width: 0; stroke-dasharray: none; stroke-linecap: butt; stroke-linejoin: miter; stroke-miterlimit: 4; fill: #28282d; fill-rule: ; opacity: 1;">S</tspan></text>
 </g>
<g style="stroke: none; stroke-width: 1; stroke-dasharray: none; stroke-linecap: butt; stroke-linejoin: miter; stroke-miterlimit: 10; fill: none; fill-rule: nonzero; opacity: 1;" transform="translate(10 10) scale(0.86 0.86)" >
  <path d="m 363 430 l 0 1230 l 570 -310 l 0 -1225 l -570 305 l 0 0" style="stroke: none; stroke-width: 1; stroke-dasharray: none; stroke-linecap: butt; stroke-linejoin: miter; stroke-miterlimit: 10; fill: #282822; fill-rule: nonzero; opacity: 1;" transform=" matrix(0.125 0 0 -0.125 0 245) " stroke-linecap="round" />
  <path d="m 933 125 l 0 1225 l 567 310 l 0 -1230 l -567 -305 l 0 0" style="stroke: none; stroke-width: 1; stroke-dasharray: none; stroke-linecap: butt; stroke-linejoin: miter; stroke-miterlimit: 10; fill: #ffffff; fill-rule: nonzero; opacity: 1;" transform=" matrix(0.125 0 0 -0.125 0 245) " stroke-linecap="round" />
  <path d="m 934 1960 l 566 -310 l -566 -300 l -570 300 l 570 310 l 0 0" style="stroke: none; stroke-width: 1; stroke-dasharray: none; stroke-linecap: butt; stroke-linejoin: miter; stroke-miterlimit: 10; fill: #d71f10; fill-rule: nonzero; opacity: 1;" transform=" matrix(0.125 0 0 -0.125 0 245) " stroke-linecap="round" />
  <path d="M 0 207 L 0 1040 L 386 832 L 386 0.832 L 0 207 l 0 0" style="stroke: none; stroke-width: 1; stroke-dasharray: none; stroke-linecap: butt; stroke-linejoin: miter; stroke-miterlimit: 10; fill: #282822; fill-rule: nonzero; opacity: 1;" transform=" matrix(0.125 0 0 -0.125 0 245) " stroke-linecap="round" />
  <path d="m 386 0 l 0 831 l 386 209 l 0 -833 l -386 -207 l 0 0" style="stroke: none; stroke-width: 1; stroke-dasharray: none; stroke-linecap: butt; stroke-linejoin: miter; stroke-miterlimit: 10; fill: #ffffff; fill-rule: nonzero; opacity: 1;" transform=" matrix(0.125 0 0 -0.125 0 245) " stroke-linecap="round" />
  <path d="M 387 1240 L 772 1040 L 387 829 L 0.84 1040 L 387 1240 l 0 0" style="stroke: none; stroke-width: 1; stroke-dasharray: none; stroke-linecap: butt; stroke-linejoin: miter; stroke-miterlimit: 10; fill: #d71f10; fill-rule: nonzero; opacity: 1;" transform=" matrix(0.125 0 0 -0.125 0 245) " stroke-linecap="round" />
  <path d="m 1140 225 l 0 586 l 270 -146 l 0 -585.4 l -270 145.4 l 0 0" style="stroke: none; stroke-width: 1; stroke-dasharray: none; stroke-linecap: butt; stroke-linejoin: miter; stroke-miterlimit: 10; fill: #282822; fill-rule: nonzero; opacity: 1;" transform=" matrix(0.125 0 0 -0.125 0 245) " stroke-linecap="round" />
  <path d="m 1410 79.6 l 0 585.4 l 280 146 l 0 -586 l -280 -145.4 l 0 0" style="stroke: none; stroke-width: 1; stroke-dasharray: none; stroke-linecap: butt; stroke-linejoin: miter; stroke-miterlimit: 10; fill: #ffffff; fill-rule: nonzero; opacity: 1;" transform=" matrix(0.125 0 0 -0.125 0 245) " stroke-linecap="round" />
  <path d="m 1410 954 l 270 -145 l -270 -145 l -270 145 l 270 145 l 0 0" style="stroke: none; stroke-width: 1; stroke-dasharray: none; stroke-linecap: butt; stroke-linejoin: miter; stroke-miterlimit: 10; fill: #d71f10; fill-rule: nonzero; opacity: 1;" transform=" matrix(0.125 0 0 -0.125 0 245) " stroke-linecap="round" />
</g>
  <g transform="translate(410.75 162.81) scale(1.2 1.2)">
   <text font-family="Open Sans" font-size="40" font-weight="bold" style="stroke: none; stroke-width: 1; stroke-dasharray: none; stroke-linecap: butt; stroke-linejoin: miter; stroke-miterlimit: 10; fill: #28282d; fill-rule: nonzero; opacity: 1;" ><tspan x="-90.07" y="8.98" style="stroke: none; stroke-width: 0; stroke-dasharray: none; stroke-linecap: butt; stroke-linejoin: miter; stroke-miterlimit: 4; fill: #28282d; fill-rule: ; opacity: 1;">F</tspan><tspan x="-69.42" y="8.98" style="stroke: none; stroke-width: 0; stroke-dasharray: none; stroke-linecap: butt; stroke-linejoin: miter; stroke-miterlimit: 4; fill: #28282d; fill-rule: ; opacity: 1;">R</tspan><tspan x="-44.7" y="8.98" style="stroke: none; stroke-width: 0; stroke-dasharray: none; stroke-linecap: butt; stroke-linejoin: miter; stroke-miterlimit: 4; fill: #28282d; fill-rule: ; opacity: 1;">É</tspan><tspan x="-22.45" y="8.98" style="stroke: none; stroke-width: 0; stroke-dasharray: none; stroke-linecap: butt; stroke-linejoin: miter; stroke-miterlimit: 4; fill: #28282d; fill-rule: ; opacity: 1;">D</tspan><tspan x="6.71" y="8.98" style="stroke: none; stroke-width: 0; stroke-dasharray: none; stroke-linecap: butt; stroke-linejoin: miter; stroke-miterlimit: 4; fill: #28282d; fill-rule: ; opacity: 1;">É</tspan><tspan x="28.96" y="8.98" style="stroke: none; stroke-width: 0; stroke-dasharray: none; stroke-linecap: butt; stroke-linejoin: miter; stroke-miterlimit: 4; fill: #28282d; fill-rule: ; opacity: 1;">R</tspan><tspan x="53.68" y="8.98" style="stroke: none; stroke-width: 0; stroke-dasharray: none; stroke-linecap: butt; stroke-linejoin: miter; stroke-miterlimit: 4; fill: #28282d; fill-rule: ; opacity: 1;">I</tspan><tspan x="64.83" y="8.98" style="stroke: none; stroke-width: 0; stroke-dasharray: none; stroke-linecap: butt; stroke-linejoin: miter; stroke-miterlimit: 4; fill: #28282d; fill-rule: ; opacity: 1;">C</tspan></text>
 </g>
</svg>